<svg xmlns="http://www.w3.org/2000/svg" xmlns:xlink="http://www.w3.org/1999/xlink" width="195" height="30" viewBox="0 0 195 30">
  <defs>
    <clipPath id="clip-richie_install_button">
      <rect width="195" height="30"/>
    </clipPath>
  </defs>
  <g id="richie_install_button" data-name="richie install button" clip-path="url(#clip-richie_install_button)">
    <g id="Gruppe_11" data-name="Gruppe 11" transform="translate(-70 -7)">
      <g id="Gruppe_10" data-name="Gruppe 10" transform="translate(76.817 -13)">
        <path id="Vereinigungsmenge_1" data-name="Vereinigungsmenge 1" d="M-2145.5-23v-4.5h-4.5v-1h4.5V-33h1v4.5h4.5v1h-4.5V-23Z" transform="translate(2312 63.5)"/>
        <g id="Rechteck_17" data-name="Rechteck 17" transform="translate(157 25)" fill="none" stroke="#000" stroke-width="1">
          <rect width="20" height="20" rx="4" stroke="none"/>
          <rect x="0.5" y="0.5" width="19" height="19" rx="3.5" fill="none"/>
        </g>
        <path id="Pfad_30" data-name="Pfad 30" d="M7.9,0H9.28l-3.9-10.569H4.08L.183,0H1.567L2.629-3.025h4.2ZM4.709-8.965h.044L6.445-4.146H3.018Zm8.32,9.1a2.726,2.726,0,0,0,2.461-1.421h.022V0h1.216V-10.569H15.454v4.189h-.029A2.676,2.676,0,0,0,13-7.749c-1.919,0-3.23,1.553-3.23,3.94S11.089.132,13.03.132Zm.242-6.76c1.311,0,2.19,1.121,2.19,2.82s-.879,2.82-2.19,2.82c-1.348,0-2.2-1.091-2.2-2.82S11.924-6.628,13.271-6.628ZM21.335.132A2.726,2.726,0,0,0,23.8-1.289h.022V0h1.216V-10.569H23.76v4.189H23.73a2.676,2.676,0,0,0-2.424-1.37c-1.919,0-3.23,1.553-3.23,3.94S19.395.132,21.335.132Zm.242-6.76c1.311,0,2.19,1.121,2.19,2.82s-.879,2.82-2.19,2.82c-1.348,0-2.2-1.091-2.2-2.82S20.229-6.628,21.577-6.628Zm8.665-2.827v1.838H29.106V-6.57h1.135v4.592c0,1.465.542,2.036,1.941,2.036A4.54,4.54,0,0,0,32.988,0V-1.069a4.959,4.959,0,0,1-.527.037c-.652,0-.945-.315-.945-1.011V-6.57H33V-7.617H31.516V-9.456ZM37.288.132c2.1,0,3.523-1.516,3.523-3.94s-1.421-3.94-3.523-3.94-3.53,1.509-3.53,3.94S35.178.132,37.288.132Zm0-1.121c-1.348,0-2.234-1.025-2.234-2.82s.886-2.82,2.234-2.82,2.227,1.025,2.227,2.82S38.635-.989,37.288-.989ZM53.8,0V-10.569H52.485V-6h-5.8v-4.57H45.366V0h1.318V-4.812h5.8V0Zm5.01.132c2.1,0,3.523-1.516,3.523-3.94s-1.421-3.94-3.523-3.94-3.53,1.509-3.53,3.94S56.7.132,58.813.132Zm0-1.121c-1.348,0-2.234-1.025-2.234-2.82s.886-2.82,2.234-2.82S61.04-5.6,61.04-3.809,60.161-.989,58.813-.989Zm4.8.989h1.274V-4.775a1.746,1.746,0,0,1,1.743-1.846A1.446,1.446,0,0,1,68.2-5.1V0H69.47V-4.841a1.685,1.685,0,0,1,1.721-1.78,1.481,1.481,0,0,1,1.582,1.655V0h1.274V-5.259a2.332,2.332,0,0,0-2.483-2.49A2.549,2.549,0,0,0,69.177-6.3h-.029a2.132,2.132,0,0,0-2.139-1.45A2.277,2.277,0,0,0,64.849-6.4h-.029V-7.617h-1.2Zm15.1-6.643A2.037,2.037,0,0,1,80.75-4.46H76.611A2.141,2.141,0,0,1,78.721-6.643Zm2,4.46a1.839,1.839,0,0,1-1.89,1.208A2.177,2.177,0,0,1,76.6-3.391v-.073h5.464v-.483c0-2.307-1.267-3.8-3.325-3.8-2.1,0-3.45,1.6-3.45,3.97,0,2.4,1.326,3.911,3.508,3.911a3.017,3.017,0,0,0,3.171-2.314Zm5.4-.725C86.243-1.04,87.8.176,90.037.176c2.432,0,3.955-1.208,3.955-3.142,0-1.516-.886-2.358-3.076-2.908L89.81-6.167c-1.436-.374-2.021-.85-2.021-1.648,0-1.033.952-1.743,2.322-1.743a2.137,2.137,0,0,1,2.41,1.831h1.318c-.059-1.772-1.582-3.018-3.684-3.018-2.2,0-3.735,1.23-3.735,2.988,0,1.436.864,2.292,2.813,2.791l1.355.352c1.421.366,2.043.916,2.043,1.809,0,1.04-1.04,1.794-2.468,1.794-1.509,0-2.593-.754-2.717-1.9ZM101.66-5.12a3.033,3.033,0,0,0-3.2-2.629c-2.1,0-3.5,1.538-3.5,3.94,0,2.454,1.406,3.94,3.516,3.94a3.033,3.033,0,0,0,3.2-2.585h-1.252A1.838,1.838,0,0,1,98.481-.989c-1.318,0-2.227-1.047-2.227-2.82,0-1.729.894-2.82,2.212-2.82a1.872,1.872,0,0,1,1.948,1.509ZM102.847,0h1.274V-4.746a1.613,1.613,0,0,1,1.633-1.787,2.565,2.565,0,0,1,.681.073V-7.7a3.283,3.283,0,0,0-.513-.051,1.866,1.866,0,0,0-1.846,1.377h-.029V-7.617h-1.2Zm7.31-6.643a2.037,2.037,0,0,1,2.029,2.183h-4.138A2.141,2.141,0,0,1,110.156-6.643Zm2,4.46a1.839,1.839,0,0,1-1.89,1.208,2.177,2.177,0,0,1-2.227-2.417v-.073H113.5v-.483c0-2.307-1.267-3.8-3.325-3.8-2.1,0-3.45,1.6-3.45,3.97,0,2.4,1.326,3.911,3.508,3.911a3.017,3.017,0,0,0,3.171-2.314Zm5.684-4.46a2.037,2.037,0,0,1,2.029,2.183H115.73A2.141,2.141,0,0,1,117.839-6.643Zm2,4.46a1.839,1.839,0,0,1-1.89,1.208,2.177,2.177,0,0,1-2.227-2.417v-.073h5.464v-.483c0-2.307-1.267-3.8-3.325-3.8-2.1,0-3.45,1.6-3.45,3.97,0,2.4,1.326,3.911,3.508,3.911a3.017,3.017,0,0,0,3.171-2.314ZM122.468,0h1.274V-4.482a1.943,1.943,0,0,1,1.985-2.139c1.172,0,1.75.674,1.75,1.9V0h1.274V-4.944a2.507,2.507,0,0,0-2.637-2.805A2.549,2.549,0,0,0,123.7-6.4h-.029V-7.617h-1.2Z" transform="translate(4 40)"/>
      </g>
      <rect id="Rechteck_18" data-name="Rechteck 18" width="195" height="30" rx="6" transform="translate(70 7)" fill="rgba(0,0,0,0.1)"/>
    </g>
  </g>
</svg>
