<svg xmlns="http://www.w3.org/2000/svg" xmlns:xlink="http://www.w3.org/1999/xlink" width="144" height="64" viewBox="0 0 144 64">
  <defs>
    <clipPath id="clip-richie_cookies_text">
      <rect width="144" height="64"/>
    </clipPath>
  </defs>
  <g id="richie_cookies_text" data-name="richie cookies text" clip-path="url(#clip-richie_cookies_text)">
    <g id="Gruppe_12" data-name="Gruppe 12" transform="translate(9.713)">
      <path id="Pfad_31" data-name="Pfad 31" d="M9.993.33C14.66.33,17.917-2.36,18.365-6.6H14.489a4.3,4.3,0,0,1-4.482,3.639c-3.045,0-4.957-2.5-4.957-6.565,0-4.008,1.938-6.526,4.944-6.526a4.408,4.408,0,0,1,4.482,3.863h3.876c-.3-4.258-3.784-7.159-8.358-7.159-5.511,0-9,3.7-9,9.835S4.456.33,9.993.33ZM26.974.3c4.271,0,7-2.729,7-7.383,0-4.588-2.769-7.356-7-7.356s-7,2.782-7,7.356C19.973-2.439,22.7.3,26.974.3Zm0-2.94c-1.9,0-3.1-1.6-3.1-4.43,0-2.808,1.226-4.43,3.1-4.43s3.085,1.622,3.085,4.43C30.059-4.232,28.859-2.637,26.974-2.637ZM42.438.3c4.271,0,7-2.729,7-7.383,0-4.588-2.769-7.356-7-7.356s-7,2.782-7,7.356C35.438-2.439,38.167.3,42.438.3Zm0-2.94c-1.9,0-3.1-1.6-3.1-4.43,0-2.808,1.226-4.43,3.1-4.43s3.085,1.622,3.085,4.43C45.523-4.232,44.323-2.637,42.438-2.637ZM55.411-8.464h-.053v-10.56h-3.85V0h3.85V-4.667l1-1.081L60.407,0h4.43L59.181-8.068l5.392-6.064H60.209ZM66.01,0h3.85V-14.133H66.01Zm1.925-15.688a2,2,0,0,0,2.057-1.991,2,2,0,0,0-2.057-1.991,2,2,0,0,0-2.057,1.991A2,2,0,0,0,67.935-15.688Zm10.824,4.1a2.933,2.933,0,0,1,2.966,3.045h-6A3.06,3.06,0,0,1,78.759-11.588Zm3.019,7.264a2.813,2.813,0,0,1-2.848,1.78,3.144,3.144,0,0,1-3.243-3.4v-.237H85.43V-7.356c0-4.3-2.6-7.08-6.71-7.08C74.54-14.436,71.9-11.509,71.9-7S74.514.3,78.864.3c3.494,0,6.025-1.859,6.447-4.627ZM87.17-9.98c0,2.083,1.371,3.48,4.047,4.087l2.61.58c1.266.3,1.74.7,1.74,1.411,0,.923-.883,1.5-2.347,1.5-1.529,0-2.465-.686-2.65-1.872H86.814C87.025-1.516,89.345.3,93.116.3,96.847.3,99.4-1.529,99.4-4.311c0-2.109-1.147-3.23-3.981-3.863l-2.7-.58c-1.239-.29-1.846-.765-1.846-1.463,0-.91.87-1.516,2.2-1.516,1.424,0,2.333.7,2.413,1.833h3.546c-.053-2.742-2.36-4.535-5.906-4.535C89.5-14.436,87.17-12.669,87.17-9.98Z" transform="translate(30 41.67)" fill="rgba(0,0,0,0.66)"/>
      <path id="Vereinigungsmenge_2" data-name="Vereinigungsmenge 2" d="M-1866.5,88.5v-12h-12A1.5,1.5,0,0,1-1880,75a1.5,1.5,0,0,1,1.5-1.5h12v-12A1.5,1.5,0,0,1-1865,60a1.5,1.5,0,0,1,1.5,1.5v12h12A1.5,1.5,0,0,1-1850,75a1.5,1.5,0,0,1-1.5,1.5h-12v12A1.5,1.5,0,0,1-1865,90,1.5,1.5,0,0,1-1866.5,88.5Z" transform="translate(1383.288 1297.934) rotate(45)" fill="rgba(0,0,0,0.33)"/>
    </g>
  </g>
</svg>
