<svg xmlns="http://www.w3.org/2000/svg" xmlns:xlink="http://www.w3.org/1999/xlink" width="200" height="70" viewBox="0 0 200 70"><defs><linearGradient id="a" x1="0.261" x2="0.83" y2="0.881" gradientUnits="objectBoundingBox"><stop offset="0" stop-color="#fff"/><stop offset="1" stop-color="#e6e6e6"/></linearGradient><filter id="b" x="-1" y="2" width="74" height="74" filterUnits="userSpaceOnUse"><feOffset dx="2" dy="4" input="SourceAlpha"/><feGaussianBlur stdDeviation="4" result="c"/><feFlood flood-opacity="0.161"/><feComposite operator="in" in2="c"/><feComposite in="SourceGraphic"/></filter><filter id="e" x="131" y="2" width="74" height="74" filterUnits="userSpaceOnUse"><feOffset dx="2" dy="4" input="SourceAlpha"/><feGaussianBlur stdDeviation="4" result="f"/><feFlood flood-opacity="0.161"/><feComposite operator="in" in2="f"/><feComposite in="SourceGraphic"/></filter><linearGradient id="g" x1="0.5" x2="0.5" y2="1" gradientUnits="objectBoundingBox"><stop offset="0" stop-color="#08f"/><stop offset="1" stop-color="#0773d2"/></linearGradient><filter id="h" x="65" y="2" width="74" height="74" filterUnits="userSpaceOnUse"><feOffset dx="2" dy="4" input="SourceAlpha"/><feGaussianBlur stdDeviation="4" result="i"/><feFlood flood-opacity="0.161"/><feComposite operator="in" in2="i"/><feComposite in="SourceGraphic"/></filter><filter id="j" x="96.145" y="31.148" width="84.98" height="84.979" filterUnits="userSpaceOnUse"><feOffset dx="30" dy="30" input="SourceAlpha"/><feGaussianBlur stdDeviation="12" result="k"/><feFlood flood-opacity="0.161"/><feComposite operator="in" in2="k"/><feComposite in="SourceGraphic"/></filter><clipPath id="m"><rect width="200" height="70"/></clipPath></defs><g id="l" clip-path="url(#m)"><g transform="translate(-12 -2)"><g transform="translate(2 2)"><g transform="matrix(1, 0, 0, 1, 10, 0)" filter="url(#b)"><rect width="50" height="50" rx="11" transform="translate(9 10)" fill="url(#a)"/></g><g transform="matrix(1, 0, 0, 1, 10, 0)" filter="url(#e)"><rect width="50" height="50" rx="11" transform="translate(141 10)" fill="url(#a)"/></g></g><g transform="translate(87 12)"><g transform="matrix(1, 0, 0, 1, -75, -10)" filter="url(#h)"><rect width="50" height="50" rx="11" transform="translate(75 10)" fill="url(#g)"/></g><g transform="translate(-27.627 9.961)"><g transform="translate(37.588)"><path d="M11.651,0A11.651,11.651,0,1,1,0,11.651,11.651,11.651,0,0,1,11.651,0Z" fill="none"/><path d="M11.651,4A7.647,7.647,0,1,0,19.3,11.651,7.656,7.656,0,0,0,11.651,4m0-4A11.651,11.651,0,1,1,0,11.651,11.651,11.651,0,0,1,11.651,0Z" transform="translate(0 0)" fill="#fff"/></g><g transform="matrix(1, 0, 0, 1, -47.37, -19.96)" filter="url(#j)"><path d="M0,0H10.923A2.477,2.477,0,0,1,13.4,2.477h0a2.477,2.477,0,0,1-2.477,2.477H0Z" transform="translate(105.65 37.15) rotate(45)" fill="rgba(255,255,255,0.5)"/></g></g></g></g></g></svg>